<svg width="60" height="60" viewBox="0 0 60 60" fill="none" xmlns="http://www.w3.org/2000/svg">
<g clip-path="url(#clip0)">
<rect x="0.301516" y="30" width="42" height="42" rx="10" transform="rotate(-45 0.301516 30)" fill="#5D3BA0"/>
<path d="M40.7266 41.2539C36.224 39.9596 32.9427 38.3737 30.8828 36.4961C28.8411 34.6003 27.8203 32.2669 27.8203 29.4961C27.8203 26.3607 29.069 23.7721 31.5664 21.7305C34.082 19.6706 37.3451 18.6406 41.3555 18.6406C44.0898 18.6406 46.5234 19.1693 48.6562 20.2266C50.8073 21.2839 52.4661 22.7422 53.6328 24.6016C54.8177 26.4609 55.4102 28.4935 55.4102 30.6992H50.1328C50.1328 28.293 49.3672 26.4062 47.8359 25.0391C46.3047 23.6536 44.1445 22.9609 41.3555 22.9609C38.7669 22.9609 36.7435 23.5352 35.2852 24.6836C33.8451 25.8138 33.125 27.3906 33.125 29.4141C33.125 31.0365 33.8086 32.4128 35.1758 33.543C36.5612 34.6549 38.9036 35.6758 42.2031 36.6055C45.5208 37.5352 48.1094 38.5651 49.9687 39.6953C51.8464 40.8073 53.2318 42.1107 54.125 43.6055C55.0365 45.1003 55.4922 46.8594 55.4922 48.8828C55.4922 52.1094 54.2344 54.6979 51.7187 56.6484C49.2031 58.5807 45.8398 59.5469 41.6289 59.5469C38.8945 59.5469 36.3424 59.0273 33.9727 57.9883C31.6029 56.931 29.7708 55.4909 28.4766 53.668C27.2005 51.845 26.5625 49.776 26.5625 47.4609H31.8398C31.8398 49.8672 32.724 51.7721 34.4922 53.1758C36.2786 54.5612 38.6576 55.2539 41.6289 55.2539C44.3997 55.2539 46.5234 54.6888 48 53.5586C49.4766 52.4284 50.2148 50.888 50.2148 48.9375C50.2148 46.987 49.5312 45.4831 48.1641 44.4258C46.7969 43.3503 44.3177 42.293 40.7266 41.2539Z" fill="white" fill-opacity="0.2"/>
</g>
<defs>
<clipPath id="clip0">
<rect x="0.301516" y="30" width="42" height="42" rx="10" transform="rotate(-45 0.301516 30)" fill="white"/>
</clipPath>
</defs>
</svg>
