<svg width="300" height="78" viewBox="0 0 300 78" fill="none" xmlns="http://www.w3.org/2000/svg">
<rect x="21" y="38.8909" width="55" height="55" rx="15" transform="rotate(-45 21 38.8909)" fill="#8739F9"/>
<path d="M68.6475 43.7769C68.6475 43.2153 68.4341 42.7811 68.0073 42.4741C67.5881 42.1597 66.8506 41.8901 65.7949 41.6655C64.7467 41.4409 63.9119 41.1714 63.2905 40.8569C62.6766 40.5425 62.2199 40.1681 61.9204 39.7339C61.6284 39.2996 61.4824 38.783 61.4824 38.1841C61.4824 37.1883 61.9017 36.346 62.7402 35.6572C63.5863 34.9684 64.6644 34.624 65.9746 34.624C67.3522 34.624 68.4678 34.9797 69.3213 35.6909C70.1823 36.4022 70.6128 37.3118 70.6128 38.4199H68.5239C68.5239 37.8509 68.2806 37.3605 67.7939 36.9487C67.3148 36.5369 66.7083 36.3311 65.9746 36.3311C65.2184 36.3311 64.627 36.4958 64.2002 36.8252C63.7734 37.1546 63.5601 37.5851 63.5601 38.1167C63.5601 38.6183 63.7585 38.9964 64.1553 39.251C64.5521 39.5055 65.2671 39.7489 66.3003 39.981C67.341 40.2131 68.1833 40.4901 68.8271 40.812C69.471 41.134 69.9465 41.5233 70.2534 41.98C70.5679 42.4292 70.7251 42.9795 70.7251 43.6309C70.7251 44.7165 70.2909 45.5887 69.4224 46.2476C68.5539 46.8989 67.4271 47.2246 66.042 47.2246C65.0687 47.2246 64.2077 47.0524 63.459 46.708C62.7103 46.3636 62.1226 45.8844 61.6958 45.2705C61.2765 44.6491 61.0669 43.979 61.0669 43.2603H63.1445C63.182 43.9565 63.459 44.5106 63.9756 44.9224C64.4997 45.3267 65.1885 45.5288 66.042 45.5288C66.8281 45.5288 67.457 45.3716 67.9287 45.0571C68.4079 44.7352 68.6475 44.3084 68.6475 43.7769ZM72.8813 40.812C72.8813 39.6216 73.1134 38.5509 73.5776 37.6001C74.0493 36.6493 74.7007 35.9155 75.5317 35.3989C76.3703 34.8823 77.3249 34.624 78.3955 34.624C80.0501 34.624 81.3866 35.1968 82.4048 36.3423C83.4305 37.4878 83.9434 39.0114 83.9434 40.9131V41.0591C83.9434 42.242 83.715 43.3052 83.2583 44.2485C82.8091 45.1844 82.1615 45.9144 81.3154 46.4385C80.4769 46.9626 79.5111 47.2246 78.418 47.2246C76.7708 47.2246 75.4344 46.6519 74.4087 45.5063C73.3905 44.3608 72.8813 42.8447 72.8813 40.958V40.812ZM74.9702 41.0591C74.9702 42.4067 75.2809 43.4886 75.9023 44.3047C76.5312 45.1208 77.3698 45.5288 78.418 45.5288C79.4736 45.5288 80.3122 45.117 80.9336 44.2935C81.555 43.4624 81.8657 42.3019 81.8657 40.812C81.8657 39.4793 81.5475 38.4012 80.9111 37.5776C80.2822 36.7466 79.4437 36.3311 78.3955 36.3311C77.3698 36.3311 76.5425 36.7391 75.9136 37.5552C75.2847 38.3713 74.9702 39.5392 74.9702 41.0591ZM88.5142 34.8486L88.5815 36.376C89.5099 35.208 90.7228 34.624 92.2202 34.624C94.7882 34.624 96.0835 36.0728 96.106 38.9702V47H94.0283V38.959C94.0208 38.083 93.8187 37.4354 93.4219 37.0161C93.0326 36.5968 92.4224 36.3872 91.5913 36.3872C90.9175 36.3872 90.326 36.5669 89.8169 36.9263C89.3078 37.2856 88.911 37.7573 88.6265 38.3413V47H86.5488V34.8486H88.5142ZM98.7451 40.8232C98.7451 38.929 99.1831 37.4242 100.059 36.3086C100.935 35.1855 102.096 34.624 103.541 34.624C105.023 34.624 106.18 35.1481 107.011 36.1963L107.112 34.8486H109.01V46.708C109.01 48.2803 108.542 49.5194 107.606 50.4253C106.678 51.3312 105.427 51.7842 103.855 51.7842C102.979 51.7842 102.122 51.597 101.283 51.2227C100.445 50.8483 99.8045 50.3354 99.3628 49.6841L100.441 48.4375C101.332 49.5381 102.421 50.0884 103.709 50.0884C104.72 50.0884 105.506 49.8039 106.067 49.2349C106.636 48.6659 106.921 47.8647 106.921 46.8315V45.7871C106.09 46.7454 104.956 47.2246 103.518 47.2246C102.096 47.2246 100.943 46.6519 100.059 45.5063C99.1831 44.3608 98.7451 42.7998 98.7451 40.8232ZM100.834 41.0591C100.834 42.4292 101.115 43.5073 101.676 44.2935C102.238 45.0721 103.024 45.4614 104.035 45.4614C105.345 45.4614 106.307 44.8662 106.921 43.6758V38.1279C106.285 36.9674 105.33 36.3872 104.057 36.3872C103.046 36.3872 102.257 36.7803 101.688 37.5664C101.118 38.3525 100.834 39.5168 100.834 41.0591ZM117.197 47.2246C115.55 47.2246 114.209 46.6855 113.176 45.6074C112.143 44.5218 111.626 43.0731 111.626 41.2612V40.8794C111.626 39.674 111.855 38.5996 112.312 37.6562C112.776 36.7054 113.42 35.9642 114.243 35.4326C115.074 34.8936 115.973 34.624 116.938 34.624C118.518 34.624 119.746 35.1444 120.622 36.1851C121.498 37.2257 121.936 38.7157 121.936 40.6548V41.5195H113.704C113.734 42.7174 114.082 43.687 114.749 44.4282C115.422 45.1619 116.276 45.5288 117.309 45.5288C118.043 45.5288 118.664 45.3791 119.173 45.0796C119.682 44.7801 120.128 44.3833 120.51 43.8892L121.779 44.8774C120.761 46.4422 119.233 47.2246 117.197 47.2246ZM116.938 36.3311C116.1 36.3311 115.396 36.638 114.827 37.252C114.258 37.8584 113.906 38.7119 113.771 39.8125H119.858V39.6553C119.799 38.5996 119.514 37.7835 119.005 37.207C118.496 36.623 117.807 36.3311 116.938 36.3311ZM126.305 45.3042H133.414V47H123.767V45.4727L130.471 36.5669H123.868V34.8486H133.077V36.3198L126.305 45.3042ZM135.031 40.812C135.031 39.6216 135.263 38.5509 135.727 37.6001C136.199 36.6493 136.85 35.9155 137.681 35.3989C138.52 34.8823 139.474 34.624 140.545 34.624C142.2 34.624 143.536 35.1968 144.554 36.3423C145.58 37.4878 146.093 39.0114 146.093 40.9131V41.0591C146.093 42.242 145.864 43.3052 145.408 44.2485C144.958 45.1844 144.311 45.9144 143.465 46.4385C142.626 46.9626 141.66 47.2246 140.567 47.2246C138.92 47.2246 137.584 46.6519 136.558 45.5063C135.54 44.3608 135.031 42.8447 135.031 40.958V40.812ZM137.12 41.0591C137.12 42.4067 137.43 43.4886 138.052 44.3047C138.681 45.1208 139.519 45.5288 140.567 45.5288C141.623 45.5288 142.462 45.117 143.083 44.2935C143.704 43.4624 144.015 42.3019 144.015 40.812C144.015 39.4793 143.697 38.4012 143.061 37.5776C142.432 36.7466 141.593 36.3311 140.545 36.3311C139.519 36.3311 138.692 36.7391 138.063 37.5552C137.434 38.3713 137.12 39.5392 137.12 41.0591ZM156.357 34.8486L156.414 36.1963C157.305 35.1481 158.506 34.624 160.019 34.624C161.718 34.624 162.875 35.2754 163.489 36.5781C163.893 35.9941 164.417 35.5225 165.061 35.1631C165.712 34.8037 166.48 34.624 167.363 34.624C170.029 34.624 171.384 36.0353 171.429 38.8579V47H169.351V38.9814C169.351 38.113 169.153 37.4653 168.756 37.0386C168.359 36.6043 167.693 36.3872 166.757 36.3872C165.986 36.3872 165.346 36.6193 164.836 37.0835C164.327 37.5402 164.032 38.1579 163.949 38.9365V47H161.86V39.0376C161.86 37.2707 160.996 36.3872 159.266 36.3872C157.903 36.3872 156.971 36.9674 156.47 38.1279V47H154.392V34.8486H156.357ZM177.392 31.9062V34.8486H179.661V36.4546H177.392V43.9902C177.392 44.4769 177.493 44.8438 177.695 45.0908C177.897 45.3304 178.242 45.4502 178.729 45.4502C178.968 45.4502 179.298 45.4053 179.717 45.3154V47C179.17 47.1497 178.639 47.2246 178.122 47.2246C177.194 47.2246 176.494 46.9438 176.022 46.3823C175.55 45.8208 175.314 45.0234 175.314 43.9902V36.4546H173.102V34.8486H175.314V31.9062H177.392ZM187.14 47.2246C185.493 47.2246 184.153 46.6855 183.12 45.6074C182.086 44.5218 181.57 43.0731 181.57 41.2612V40.8794C181.57 39.674 181.798 38.5996 182.255 37.6562C182.719 36.7054 183.363 35.9642 184.187 35.4326C185.018 34.8936 185.916 34.624 186.882 34.624C188.462 34.624 189.689 35.1444 190.565 36.1851C191.441 37.2257 191.879 38.7157 191.879 40.6548V41.5195H183.647C183.677 42.7174 184.026 43.687 184.692 44.4282C185.366 45.1619 186.219 45.5288 187.252 45.5288C187.986 45.5288 188.608 45.3791 189.117 45.0796C189.626 44.7801 190.071 44.3833 190.453 43.8892L191.722 44.8774C190.704 46.4422 189.177 47.2246 187.14 47.2246ZM186.882 36.3311C186.043 36.3311 185.34 36.638 184.771 37.252C184.201 37.8584 183.85 38.7119 183.715 39.8125H189.802V39.6553C189.742 38.5996 189.457 37.7835 188.948 37.207C188.439 36.623 187.75 36.3311 186.882 36.3311ZM196.259 34.8486L196.327 36.376C197.255 35.208 198.468 34.624 199.965 34.624C202.533 34.624 203.829 36.0728 203.851 38.9702V47H201.773V38.959C201.766 38.083 201.564 37.4354 201.167 37.0161C200.778 36.5968 200.167 36.3872 199.336 36.3872C198.663 36.3872 198.071 36.5669 197.562 36.9263C197.053 37.2856 196.656 37.7573 196.372 38.3413V47H194.294V34.8486H196.259ZM206.49 40.8232C206.49 38.929 206.928 37.4242 207.804 36.3086C208.68 35.1855 209.841 34.624 211.286 34.624C212.768 34.624 213.925 35.1481 214.756 36.1963L214.857 34.8486H216.755V46.708C216.755 48.2803 216.287 49.5194 215.351 50.4253C214.423 51.3312 213.172 51.7842 211.6 51.7842C210.724 51.7842 209.867 51.597 209.028 51.2227C208.19 50.8483 207.55 50.3354 207.108 49.6841L208.186 48.4375C209.077 49.5381 210.166 50.0884 211.454 50.0884C212.465 50.0884 213.251 49.8039 213.812 49.2349C214.382 48.6659 214.666 47.8647 214.666 46.8315V45.7871C213.835 46.7454 212.701 47.2246 211.263 47.2246C209.841 47.2246 208.688 46.6519 207.804 45.5063C206.928 44.3608 206.49 42.7998 206.49 40.8232ZM208.579 41.0591C208.579 42.4292 208.86 43.5073 209.421 44.2935C209.983 45.0721 210.769 45.4614 211.78 45.4614C213.09 45.4614 214.052 44.8662 214.666 43.6758V38.1279C214.03 36.9674 213.075 36.3872 211.802 36.3872C210.792 36.3872 210.002 36.7803 209.433 37.5664C208.864 38.3525 208.579 39.5168 208.579 41.0591ZM230.658 44.1362L232.994 34.8486H235.072L231.534 47H229.85L226.896 37.791L224.021 47H222.336L218.81 34.8486H220.876L223.269 43.9453L226.099 34.8486H227.772L230.658 44.1362ZM244.696 47C244.576 46.7604 244.479 46.3337 244.404 45.7197C243.438 46.723 242.285 47.2246 240.945 47.2246C239.747 47.2246 238.763 46.8877 237.992 46.2139C237.228 45.5326 236.846 44.6715 236.846 43.6309C236.846 42.3656 237.325 41.3848 238.284 40.6885C239.25 39.9847 240.605 39.6328 242.349 39.6328H244.371V38.6782C244.371 37.952 244.153 37.3755 243.719 36.9487C243.285 36.5145 242.645 36.2974 241.799 36.2974C241.058 36.2974 240.436 36.4845 239.935 36.8589C239.433 37.2332 239.182 37.6862 239.182 38.2178H237.093C237.093 37.6113 237.307 37.0273 237.733 36.4658C238.168 35.8968 238.752 35.4476 239.485 35.1182C240.227 34.7887 241.039 34.624 241.922 34.624C243.322 34.624 244.419 34.9759 245.213 35.6797C246.007 36.376 246.418 37.3381 246.448 38.5659V44.1587C246.448 45.2743 246.59 46.1615 246.875 46.8203V47H244.696ZM241.249 45.4165C241.9 45.4165 242.518 45.248 243.102 44.9111C243.686 44.5742 244.109 44.1362 244.371 43.5972V41.104H242.742C240.197 41.104 238.924 41.849 238.924 43.3389C238.924 43.9902 239.141 44.4993 239.575 44.8662C240.009 45.2331 240.567 45.4165 241.249 45.4165ZM251.67 34.8486L251.738 36.376C252.666 35.208 253.879 34.624 255.376 34.624C257.944 34.624 259.24 36.0728 259.262 38.9702V47H257.185V38.959C257.177 38.083 256.975 37.4354 256.578 37.0161C256.189 36.5968 255.579 36.3872 254.748 36.3872C254.074 36.3872 253.482 36.5669 252.973 36.9263C252.464 37.2856 252.067 37.7573 251.783 38.3413V47H249.705V34.8486H251.67ZM269.897 47C269.778 46.7604 269.68 46.3337 269.605 45.7197C268.64 46.723 267.487 47.2246 266.146 47.2246C264.949 47.2246 263.964 46.8877 263.193 46.2139C262.429 45.5326 262.047 44.6715 262.047 43.6309C262.047 42.3656 262.527 41.3848 263.485 40.6885C264.451 39.9847 265.806 39.6328 267.55 39.6328H269.572V38.6782C269.572 37.952 269.355 37.3755 268.92 36.9487C268.486 36.5145 267.846 36.2974 267 36.2974C266.259 36.2974 265.637 36.4845 265.136 36.8589C264.634 37.2332 264.383 37.6862 264.383 38.2178H262.294C262.294 37.6113 262.508 37.0273 262.935 36.4658C263.369 35.8968 263.953 35.4476 264.687 35.1182C265.428 34.7887 266.24 34.624 267.124 34.624C268.524 34.624 269.62 34.9759 270.414 35.6797C271.208 36.376 271.619 37.3381 271.649 38.5659V44.1587C271.649 45.2743 271.792 46.1615 272.076 46.8203V47H269.897ZM266.45 45.4165C267.101 45.4165 267.719 45.248 268.303 44.9111C268.887 44.5742 269.31 44.1362 269.572 43.5972V41.104H267.943C265.398 41.104 264.125 41.849 264.125 43.3389C264.125 43.9902 264.342 44.4993 264.776 44.8662C265.211 45.2331 265.768 45.4165 266.45 45.4165Z" fill="white"/>
</svg>
